<svg width="1892" height="1893" xmlns="http://www.w3.org/2000/svg" xmlns:xlink="http://www.w3.org/1999/xlink" xml:space="preserve" overflow="hidden"><defs><clipPath id="clip0"><rect x="1254" y="215" width="1892" height="1893"/></clipPath><linearGradient x1="2741" y1="716" x2="1294" y2="716" gradientUnits="userSpaceOnUse" spreadMethod="reflect" id="fill1"><stop offset="0" stop-color="#FF0000"/><stop offset="0.5" stop-color="#FFC000"/><stop offset="1" stop-color="#FFFF00"/></linearGradient><linearGradient x1="3106" y1="909.5" x2="2838" y2="909.5" gradientUnits="userSpaceOnUse" spreadMethod="reflect" id="fill2"><stop offset="0" stop-color="#FF0000"/><stop offset="0.5" stop-color="#FFC000"/><stop offset="1" stop-color="#FFFF00"/></linearGradient><linearGradient x1="2900" y1="843" x2="2113" y2="843" gradientUnits="userSpaceOnUse" spreadMethod="reflect" id="fill3"><stop offset="0" stop-color="#FF0000"/><stop offset="0.5" stop-color="#FFC000"/><stop offset="1" stop-color="#FFFF00"/></linearGradient><linearGradient x1="2533.44" y1="1461.4" x2="1866.56" y2="1461.4" gradientUnits="userSpaceOnUse" spreadMethod="reflect" id="fill4"><stop offset="0" stop-color="#FF0000"/><stop offset="0.5" stop-color="#FFC000"/><stop offset="1" stop-color="#FFFF00"/></linearGradient><linearGradient x1="2364.86" y1="1648.4" x2="2035.16" y2="1648.4" gradientUnits="userSpaceOnUse" spreadMethod="reflect" id="fill5"><stop offset="0" stop-color="#FF0000"/><stop offset="0.5" stop-color="#FFC000"/><stop offset="1" stop-color="#FFFF00"/></linearGradient></defs><g clip-path="url(#clip0)" transform="translate(-1254 -215)"><path d="M2158.5 347.559 2158.5 429.892C2172.9 429.892 2185.25 427.833 2199.66 427.833 2214.07 427.833 2226.42 427.833 2240.83 429.892L2240.83 347.559C2321.1 351.675 2397.26 368.142 2467.24 394.9L2436.37 469C2463.13 479.292 2487.83 489.583 2512.53 501.934L2543.4 425.775C2582.51 444.3 2617.5 466.942 2652.49 491.642L2741 403.133C2590.74 289.925 2403.44 222 2199.66 222 1699.49 222 1294 627.492 1294 1127.67L1294 1210 1417.5 1210 1417.5 1127.67C1417.5 1043.28 1431.91 960.942 1456.61 884.783L1532.77 915.658C1541 888.9 1551.29 864.2 1561.58 839.5L1485.42 808.625C1516.3 738.642 1559.52 672.775 1608.92 617.2L1666.56 674.833C1685.08 654.25 1703.61 633.667 1724.19 615.142L1666.56 557.509C1722.13 506.05 1785.94 460.767 1855.92 425.775L1886.8 501.934C1911.5 489.583 1936.2 479.292 1962.95 469L1932.08 392.842C2002.06 366.083 2078.22 351.675 2158.5 347.559Z" fill="url(#fill1)" fill-rule="evenodd"/><path d="M2943.14 609 2854.49 697.503C2877.17 732.493 2897.78 769.541 2914.28 806.589L2838 839.521C2848.31 864.219 2858.62 890.976 2866.86 915.675L2943.14 884.802C2967.88 960.956 2982.31 1043.28 2982.31 1127.67L2982.31 1210 3106 1210 3106 1127.67C3106 934.199 3046.22 757.192 2943.14 609Z" fill="url(#fill2)" fill-rule="evenodd"/><path d="M2142.38 1091.09C2138.27 1093.15 2136.21 1097.28 2132.09 1101.4 2103.27 1136.44 2107.39 1187.97 2142.38 1218.89 2177.38 1247.74 2228.85 1243.62 2259.73 1208.58L2900 448 2142.38 1091.09Z" fill="url(#fill3)" fill-rule="evenodd"/><path d="M2331.78 1408.91 2331.78 1531.26 2342.95 1531.26C2353.19 1531.26 2360.28 1526.84 2364.22 1517.99 2368.16 1509.15 2370.13 1493.16 2370.13 1470.03 2370.13 1446.9 2368.18 1430.93 2364.27 1422.12 2360.37 1413.31 2353.26 1408.91 2342.95 1408.91ZM2418.88 1396.77 2463.03 1396.77 2492.89 1467.45 2519.75 1396.77 2536.72 1396.77 2500.95 1489.26 2500.95 1543.4 2458.41 1543.4 2458.41 1489.26ZM2289.24 1396.77 2350.04 1396.77C2393.22 1396.77 2414.81 1421.26 2414.81 1470.24 2414.81 1519.01 2392.43 1543.4 2347.68 1543.4L2289.24 1543.4ZM2156.38 1396.77 2183.34 1396.77 2250.16 1496.99 2250.16 1396.77 2264.45 1396.77 2264.45 1543.4 2231.9 1543.4 2170.67 1450.59 2170.67 1543.4 2156.38 1543.4ZM2022.73 1396.77 2065.27 1396.77 2065.27 1496.46C2065.27 1509.35 2067.12 1518.15 2070.81 1522.88 2074.49 1527.61 2081.31 1529.97 2091.27 1529.97 2110.53 1529.97 2120.17 1518.37 2120.17 1495.17L2120.17 1396.77 2134.45 1396.77 2134.45 1495.17C2134.45 1528.9 2115.8 1545.76 2078.49 1545.76 2041.32 1545.76 2022.73 1528.9 2022.73 1495.17ZM1879.13 1396.77 1921.67 1396.77 1921.67 1455.74 1956.37 1455.74 1956.37 1396.77 1998.91 1396.77 1998.91 1543.4 1956.37 1543.4 1956.37 1470.46 1921.67 1470.46 1921.67 1543.4 1879.13 1543.4Z" fill="url(#fill4)" fill-rule="evenodd"/><text fill="#000000" fill-opacity="0" font-family="Arial,Arial_MSFontService,sans-serif" font-size="148.994" x="1879.13" y="1527.14">HUNDY</text><path d="M2174.73 1627.03C2171.38 1627.03 2168.57 1627.66 2166.29 1628.92 2164.02 1630.17 2162.17 1631.85 2160.75 1633.95 2159.33 1636.04 2158.32 1638.49 2157.7 1641.29 2157.09 1644.09 2156.78 1647.04 2156.78 1650.12 2156.78 1653.53 2157.07 1656.68 2157.64 1659.55 2158.2 1662.43 2159.16 1664.91 2160.51 1666.99 2161.85 1669.07 2163.66 1670.69 2165.91 1671.84 2168.17 1672.99 2171.01 1673.57 2174.42 1673.57 2177.79 1673.57 2180.64 1672.94 2182.94 1671.68 2185.24 1670.42 2187.1 1668.73 2188.5 1666.58 2189.91 1664.44 2190.91 1661.96 2191.51 1659.15 2192.11 1656.33 2192.41 1653.35 2192.41 1650.21 2192.41 1646.92 2192.11 1643.85 2191.53 1641.02 2190.95 1638.19 2189.98 1635.74 2188.61 1633.66 2187.25 1631.57 2185.44 1629.95 2183.16 1628.78 2180.89 1627.61 2178.08 1627.03 2174.73 1627.03ZM2341.61 1626.76C2339.06 1626.76 2337 1627.36 2335.41 1628.56 2333.82 1629.76 2332.57 1631.4 2331.66 1633.5 2330.75 1635.6 2330.12 1638.05 2329.79 1640.87 2329.47 1643.68 2329.3 1646.71 2329.3 1649.94 2329.3 1654.28 2329.53 1657.97 2329.97 1661.01 2330.42 1664.05 2331.14 1666.53 2332.11 1668.45 2333.08 1670.36 2334.32 1671.76 2335.84 1672.63 2337.35 1673.49 2339.18 1673.93 2341.34 1673.93 2343.02 1673.93 2344.49 1673.66 2345.76 1673.12 2347.04 1672.58 2348.13 1671.81 2349.04 1670.81 2349.96 1669.8 2350.71 1668.6 2351.31 1667.19 2351.91 1665.78 2352.39 1664.23 2352.75 1662.52 2353.11 1660.81 2353.36 1658.96 2353.49 1656.97 2353.63 1654.98 2353.69 1652.91 2353.69 1650.75 2353.69 1647.84 2353.59 1645.24 2353.38 1642.93 2353.17 1640.63 2352.86 1638.59 2352.46 1636.82 2352.05 1635.06 2351.53 1633.54 2350.89 1632.26 2350.24 1630.99 2349.47 1629.94 2348.57 1629.12 2347.67 1628.3 2346.65 1627.7 2345.5 1627.32 2344.34 1626.95 2343.05 1626.76 2341.61 1626.76ZM2295.61 1626.76C2293.06 1626.76 2291 1627.36 2289.41 1628.56 2287.82 1629.76 2286.57 1631.4 2285.66 1633.5 2284.75 1635.6 2284.12 1638.05 2283.79 1640.87 2283.47 1643.68 2283.3 1646.71 2283.3 1649.94 2283.3 1654.28 2283.53 1657.97 2283.97 1661.01 2284.42 1664.05 2285.14 1666.53 2286.11 1668.45 2287.08 1670.36 2288.32 1671.76 2289.84 1672.63 2291.35 1673.49 2293.18 1673.93 2295.34 1673.93 2297.02 1673.93 2298.49 1673.66 2299.76 1673.12 2301.04 1672.58 2302.13 1671.81 2303.04 1670.81 2303.96 1669.8 2304.71 1668.6 2305.31 1667.19 2305.91 1665.78 2306.39 1664.23 2306.75 1662.52 2307.11 1660.81 2307.36 1658.96 2307.49 1656.97 2307.63 1654.98 2307.69 1652.91 2307.69 1650.75 2307.69 1647.84 2307.59 1645.24 2307.38 1642.93 2307.17 1640.63 2306.86 1638.59 2306.46 1636.82 2306.05 1635.06 2305.53 1633.54 2304.89 1632.26 2304.24 1630.99 2303.47 1629.94 2302.57 1629.12 2301.67 1628.3 2300.65 1627.7 2299.5 1627.32 2298.34 1626.95 2297.05 1626.76 2295.61 1626.76ZM2058.61 1626.76C2056.06 1626.76 2054 1627.36 2052.41 1628.56 2050.82 1629.76 2049.57 1631.4 2048.66 1633.5 2047.75 1635.6 2047.12 1638.05 2046.79 1640.87 2046.47 1643.68 2046.3 1646.71 2046.3 1649.94 2046.3 1654.28 2046.53 1657.97 2046.97 1661.01 2047.42 1664.05 2048.14 1666.53 2049.11 1668.45 2050.08 1670.36 2051.32 1671.76 2052.84 1672.63 2054.35 1673.49 2056.18 1673.93 2058.34 1673.93 2060.02 1673.93 2061.49 1673.66 2062.76 1673.12 2064.04 1672.58 2065.13 1671.81 2066.04 1670.81 2066.96 1669.8 2067.71 1668.6 2068.31 1667.19 2068.91 1665.78 2069.39 1664.23 2069.75 1662.52 2070.11 1660.81 2070.36 1658.96 2070.49 1656.97 2070.63 1654.98 2070.69 1652.91 2070.69 1650.75 2070.69 1647.84 2070.59 1645.24 2070.38 1642.93 2070.17 1640.63 2069.86 1638.59 2069.46 1636.82 2069.05 1635.06 2068.53 1633.54 2067.89 1632.26 2067.24 1630.99 2066.47 1629.94 2065.57 1629.12 2064.67 1628.3 2063.65 1627.7 2062.5 1627.32 2061.34 1626.95 2060.05 1626.76 2058.61 1626.76ZM2104.36 1621.28 2144.79 1621.28C2145.03 1621.28 2145.25 1621.34 2145.44 1621.46 2145.64 1621.58 2145.8 1621.77 2145.94 1622.04 2146.07 1622.31 2146.17 1622.67 2146.23 1623.1 2146.29 1623.53 2146.32 1624.04 2146.32 1624.6 2146.32 1625.17 2146.29 1625.67 2146.23 1626.09 2146.17 1626.51 2146.07 1626.84 2145.94 1627.1 2145.8 1627.35 2145.64 1627.54 2145.44 1627.66 2145.25 1627.78 2145.03 1627.84 2144.79 1627.84L2128.44 1627.84 2128.44 1678.24C2128.44 1678.48 2128.38 1678.69 2128.26 1678.87 2128.14 1679.05 2127.93 1679.19 2127.63 1679.3 2127.33 1679.4 2126.93 1679.49 2126.44 1679.57 2125.95 1679.64 2125.32 1679.68 2124.58 1679.68 2123.86 1679.68 2123.24 1679.64 2122.73 1679.57 2122.23 1679.49 2121.82 1679.4 2121.52 1679.3 2121.22 1679.19 2121.01 1679.05 2120.89 1678.87 2120.77 1678.69 2120.71 1678.48 2120.71 1678.24L2120.71 1627.84 2104.36 1627.84C2104.12 1627.84 2103.9 1627.78 2103.71 1627.66 2103.52 1627.54 2103.36 1627.35 2103.24 1627.1 2103.12 1626.84 2103.02 1626.51 2102.95 1626.09 2102.87 1625.67 2102.83 1625.17 2102.83 1624.6 2102.83 1624.04 2102.87 1623.53 2102.95 1623.1 2103.02 1622.67 2103.12 1622.31 2103.24 1622.04 2103.36 1621.77 2103.52 1621.58 2103.71 1621.46 2103.9 1621.34 2104.12 1621.28 2104.36 1621.28ZM2251.08 1620.88C2251.8 1620.88 2252.4 1620.91 2252.88 1620.97 2253.36 1621.03 2253.73 1621.11 2254 1621.21 2254.27 1621.32 2254.45 1621.45 2254.54 1621.62 2254.63 1621.78 2254.67 1621.95 2254.67 1622.13L2254.67 1673.21 2265.19 1673.21C2265.43 1673.21 2265.65 1673.28 2265.86 1673.41 2266.07 1673.55 2266.24 1673.74 2266.38 1674 2266.51 1674.25 2266.62 1674.57 2266.69 1674.96 2266.77 1675.35 2266.8 1675.82 2266.8 1676.35 2266.8 1676.92 2266.76 1677.4 2266.67 1677.79 2266.58 1678.18 2266.46 1678.5 2266.31 1678.74 2266.16 1678.97 2265.99 1679.15 2265.79 1679.25 2265.6 1679.36 2265.4 1679.41 2265.19 1679.41L2234.82 1679.41C2234.61 1679.41 2234.41 1679.36 2234.23 1679.25 2234.05 1679.15 2233.88 1678.97 2233.72 1678.74 2233.55 1678.5 2233.43 1678.18 2233.34 1677.79 2233.25 1677.4 2233.2 1676.92 2233.2 1676.35 2233.2 1675.82 2233.25 1675.35 2233.34 1674.96 2233.43 1674.57 2233.54 1674.25 2233.67 1674 2233.81 1673.74 2233.97 1673.55 2234.17 1673.41 2234.36 1673.28 2234.58 1673.21 2234.82 1673.21L2246.95 1673.21 2246.95 1629.01 2235.72 1635.7C2235.15 1636 2234.69 1636.18 2234.35 1636.24 2234 1636.3 2233.73 1636.23 2233.52 1636.04 2233.31 1635.84 2233.16 1635.52 2233.09 1635.07 2233.01 1634.62 2232.98 1634.05 2232.98 1633.36 2232.98 1632.86 2233 1632.42 2233.04 1632.06 2233.09 1631.7 2233.16 1631.4 2233.25 1631.16 2233.34 1630.92 2233.46 1630.71 2233.63 1630.53 2233.79 1630.35 2234.01 1630.17 2234.28 1630L2247.67 1621.42C2247.79 1621.33 2247.94 1621.25 2248.12 1621.19 2248.29 1621.13 2248.52 1621.07 2248.79 1621.01 2249.06 1620.95 2249.37 1620.91 2249.73 1620.9 2250.09 1620.88 2250.54 1620.88 2251.08 1620.88ZM2342.06 1620.43C2345.74 1620.43 2348.83 1621.08 2351.33 1622.38 2353.84 1623.68 2355.85 1625.6 2357.38 1628.13 2358.9 1630.66 2359.99 1633.78 2360.63 1637.47 2361.28 1641.17 2361.6 1645.42 2361.6 1650.21 2361.6 1654.67 2361.25 1658.75 2360.54 1662.43 2359.84 1666.11 2358.67 1669.28 2357.04 1671.93 2355.41 1674.58 2353.27 1676.63 2350.64 1678.08 2348 1679.54 2344.75 1680.26 2340.89 1680.26 2337.24 1680.26 2334.16 1679.61 2331.66 1678.31 2329.16 1677.01 2327.14 1675.09 2325.62 1672.56 2324.09 1670.03 2323 1666.91 2322.36 1663.21 2321.72 1659.52 2321.39 1655.27 2321.39 1650.48 2321.39 1646.05 2321.75 1641.98 2322.47 1638.28 2323.19 1634.58 2324.36 1631.41 2325.98 1628.76 2327.59 1626.11 2329.72 1624.06 2332.36 1622.61 2334.99 1621.15 2338.23 1620.43 2342.06 1620.43ZM2296.06 1620.43C2299.74 1620.43 2302.83 1621.08 2305.33 1622.38 2307.84 1623.68 2309.85 1625.6 2311.38 1628.13 2312.9 1630.66 2313.99 1633.78 2314.63 1637.47 2315.28 1641.17 2315.6 1645.42 2315.6 1650.21 2315.6 1654.67 2315.25 1658.75 2314.54 1662.43 2313.84 1666.11 2312.67 1669.28 2311.04 1671.93 2309.41 1674.58 2307.27 1676.63 2304.64 1678.08 2302 1679.54 2298.75 1680.26 2294.89 1680.26 2291.24 1680.26 2288.16 1679.61 2285.66 1678.31 2283.16 1677.01 2281.14 1675.09 2279.62 1672.56 2278.09 1670.03 2277 1666.91 2276.36 1663.21 2275.72 1659.52 2275.39 1655.27 2275.39 1650.48 2275.39 1646.05 2275.75 1641.98 2276.47 1638.28 2277.19 1634.58 2278.36 1631.41 2279.98 1628.76 2281.59 1626.11 2283.72 1624.06 2286.36 1622.61 2288.99 1621.15 2292.23 1620.43 2296.06 1620.43ZM2175.2 1620.43C2179.48 1620.43 2183.21 1621.07 2186.39 1622.36 2189.56 1623.65 2192.2 1625.53 2194.32 1628 2196.43 1630.47 2198 1633.52 2199.03 1637.16 2200.07 1640.8 2200.58 1644.97 2200.58 1649.67 2200.58 1654.37 2200.03 1658.61 2198.92 1662.38 2197.81 1666.16 2196.16 1669.37 2193.96 1672.02 2191.75 1674.67 2188.99 1676.71 2185.67 1678.13 2182.34 1679.55 2178.47 1680.26 2174.03 1680.26 2169.66 1680.26 2165.88 1679.61 2162.69 1678.31 2159.5 1677.01 2156.87 1675.11 2154.78 1672.63 2152.7 1670.14 2151.15 1667.06 2150.13 1663.37 2149.12 1659.69 2148.61 1655.45 2148.61 1650.66 2148.61 1646.08 2149.16 1641.91 2150.27 1638.17 2151.38 1634.43 2153.04 1631.25 2155.26 1628.62 2157.47 1626 2160.24 1623.98 2163.57 1622.56 2166.89 1621.14 2170.77 1620.43 2175.2 1620.43ZM2059.06 1620.43C2062.74 1620.43 2065.83 1621.08 2068.33 1622.38 2070.84 1623.68 2072.85 1625.6 2074.38 1628.13 2075.9 1630.66 2076.99 1633.78 2077.63 1637.47 2078.28 1641.17 2078.6 1645.42 2078.6 1650.21 2078.6 1654.67 2078.25 1658.75 2077.54 1662.43 2076.84 1666.11 2075.67 1669.28 2074.04 1671.93 2072.41 1674.58 2070.27 1676.63 2067.64 1678.08 2065 1679.54 2061.75 1680.26 2057.89 1680.26 2054.24 1680.26 2051.16 1679.61 2048.66 1678.31 2046.16 1677.01 2044.14 1675.09 2042.62 1672.56 2041.09 1670.03 2040 1666.91 2039.36 1663.21 2038.72 1659.52 2038.39 1655.27 2038.39 1650.48 2038.39 1646.05 2038.75 1641.98 2039.47 1638.28 2040.19 1634.58 2041.36 1631.41 2042.98 1628.76 2044.59 1626.11 2046.72 1624.06 2049.36 1622.61 2051.99 1621.15 2055.23 1620.43 2059.06 1620.43Z" fill="url(#fill5)" fill-rule="evenodd"/><text fill="#000000" fill-opacity="0" font-family="Arial,Arial_MSFontService,sans-serif" font-size="59.8359" x="2038.39" y="1672.78">0 TO 100</text><path d="M285.771 906.583C204.137 906.583 137.958 972.762 137.958 1054.4 137.958 1136.03 204.137 1202.21 285.771 1202.21 367.405 1202.21 433.583 1136.03 433.583 1054.4 433.583 972.762 367.405 906.583 285.771 906.583ZM285.771 1103.67C258.56 1103.67 236.5 1081.61 236.5 1054.4 236.5 1027.18 258.56 1005.13 285.771 1005.13 312.982 1005.13 335.042 1027.18 335.042 1054.4 335.042 1081.61 312.982 1103.67 285.771 1103.67Z" transform="matrix(1 0 0 1.00053 1254 215)"/><path d="M492.708 1054.4C492.691 1092.71 481.952 1130.26 461.707 1162.79L1267.78 1162.79C1216.9 1080.89 1229.67 974.652 1298.52 907.155L1105.83 853.824C1095.14 850.214 1083.45 855.336 1078.85 865.649L1060.66 906.583 904.967 906.583C903.883 906.493 903.077 905.539 903.168 904.455 903.201 904.057 903.355 903.68 903.607 903.371 929.388 875.322 927.549 831.686 899.5 805.905 871.451 780.127 827.815 781.966 802.035 810.013 798.071 814.327 794.672 819.128 791.92 824.301 791.307 825.2 790.081 825.432 789.183 824.819 788.708 824.496 788.398 823.984 788.333 823.414L788.333 748.917C788.333 738.032 779.51 729.208 768.625 729.208L731.357 729.208C713.658 729.212 696.12 732.555 679.662 739.062L365.333 863.422C442.395 895.598 492.612 970.888 492.708 1054.4Z" transform="matrix(1 0 0 1.00053 1254 215)"/><path d="M1828.76 1053.98 1632.03 969.236C1660.6 1031.76 1655.92 1104.44 1619.57 1162.79L1813.17 1162.79C1834.94 1162.79 1852.58 1145.14 1852.58 1123.38L1852.58 1090.19C1852.58 1074.44 1843.22 1060.21 1828.76 1053.98Z" transform="matrix(1 0 0 1.00053 1254 215)"/><path d="M285.771 847.458C302.383 847.523 318.926 849.595 335.042 853.627L335.042 748.917C335.042 716.262 308.571 689.792 275.917 689.792L39.4167 689.792 39.4167 985.417 90.9145 985.417C120.161 902.854 198.181 847.616 285.771 847.458Z" transform="matrix(1 0 0 1.00053 1254 215)"/><path d="M1443.64 906.583C1362 906.583 1295.82 972.762 1295.82 1054.4 1295.82 1136.03 1362 1202.21 1443.64 1202.21 1525.27 1202.21 1591.45 1136.03 1591.45 1054.4 1591.45 972.762 1525.27 906.583 1443.64 906.583ZM1443.64 1103.67C1416.42 1103.67 1394.36 1081.61 1394.36 1054.4 1394.36 1027.18 1416.42 1005.13 1443.64 1005.13 1470.85 1005.13 1492.91 1027.18 1492.91 1054.4 1492.91 1081.61 1470.85 1103.67 1443.64 1103.67Z" transform="matrix(1 0 0 1.00053 1254 215)"/></g></svg>