<svg width="1073" height="1292" xmlns="http://www.w3.org/2000/svg" xmlns:xlink="http://www.w3.org/1999/xlink" xml:space="preserve" overflow="hidden"><defs><clipPath id="clip0"><rect x="1732" y="354" width="1073" height="1292"/></clipPath><clipPath id="clip1"><rect x="1846" y="644" width="706" height="706"/></clipPath><clipPath id="clip2"><rect x="1846" y="644" width="706" height="706"/></clipPath><clipPath id="clip3"><rect x="1846" y="644" width="706" height="706"/></clipPath><clipPath id="clip4"><rect x="1947" y="354" width="605" height="583"/></clipPath><clipPath id="clip5"><rect x="1947" y="354" width="605" height="583"/></clipPath><clipPath id="clip6"><rect x="1947" y="354" width="605" height="583"/></clipPath></defs><g clip-path="url(#clip0)" transform="translate(-1732 -354)"><g clip-path="url(#clip1)"><g clip-path="url(#clip2)"><g clip-path="url(#clip3)"><path d="M2401.45 791.875 2184.81 997.5 2401.45 1203.12 2401.45 791.875Z" fill="#FF0000"/><path d="M2173.8 791.875 1957.16 997.5 2173.8 1203.12 2173.8 791.875Z" fill="#FF0000"/></g></g></g><g clip-path="url(#clip4)"><g clip-path="url(#clip5)"><g clip-path="url(#clip6)"><path d="M48.5 260.687 221.887 115.187 221.887 200.062C488.031 202.487 533.5 472.875 533.5 472.875 533.5 472.875 434.681 329.194 221.887 327.375L221.887 406.187 48.5 260.687Z" transform="matrix(1.03952 0 0 1 1947 354)"/></g></g></g><text font-family="Harlow Solid Italic,Harlow Solid Italic_MSFontService,sans-serif" font-style="italic" font-weight="400" font-stretch="semi-expanded" font-size="248" transform="matrix(1 0 0 1 1880.5 1406)">Rewind<tspan font-family="Arial,Arial_MSFontService,sans-serif" font-style="normal" font-stretch="normal" font-size="55" x="175.587" y="144">Forward then Back</tspan></text></g></svg>